<svg width="754" height="68" viewBox="0 0 754 68" fill="none" xmlns="http://www.w3.org/2000/svg">
<path d="M351.1 16.2C353.2 19.7 352.1 24.7 349 27.3C345.8 30 341.1 30.3 337.4 28.6C331.1 25.5 328.7 17 331.7 10.8C334.7 4.60002 342.2 1.20004 349 2.20004C355.9 3.30004 361.7 8.3 364.6 14.6C367.5 20.8 367.7 28.2001 366 34.9001C361.1 53.7001 340.1 66.8 321 62.8C316.2 61.9 311.6 59.9 308.3 56.3C305.1 52.7 303.5 47.4001 305.4 42.9001C307.2 38.4001 312.8 35.6 317.2 37.7C321.8 39.9 323.1 46.3001 321 50.9001C318.9 55.6001 314.3 58.6 309.7 60.8C309.7 60.8 291 66.6 281.3 65.6H36.7" stroke="black" stroke-width="3.1" stroke-linecap="round" stroke-linejoin="round"/>
<path d="M402.9 16.2C400.8 19.7 401.9 24.7 405 27.3C408.2 30 412.9 30.3 416.6 28.6C422.9 25.5 425.3 17 422.3 10.8C419.3 4.60002 411.8 1.20004 405 2.20004C398.2 3.30004 392.3 8.3 389.4 14.6C386.5 20.8 386.3 28.2001 388 34.9001C392.9 53.7001 414 66.8 433 62.8C437.8 61.9 442.4 59.9 445.7 56.3C448.9 52.7 450.5 47.4001 448.7 42.9001C446.8 38.4001 441.2 35.6 436.8 37.7C432.2 39.9 430.9 46.3001 433 50.9001C435.1 55.6001 439.7 58.6 444.3 60.8C444.3 60.8 463 66.6 472.7 65.6H717.3" stroke="black" stroke-width="3.1" stroke-linecap="round" stroke-linejoin="round"/>
<path d="M717.3 65.5999C732.4 65.5999 740.8 63.3 745.6 58.8C752 52.7 754 42.2 749.6 34.5C745.2 26.9 734.4 23.4 726.7 27.8C722.6 30.1 719.6 34.7 719.9 39.4C720.2 44.2 724.5 48.5 729.2 48.2C734 47.9 737.6 42 735.3 37.9" stroke="black" stroke-width="3.1" stroke-linecap="round" stroke-linejoin="round"/>
<path d="M36.7 65.5999C21.6 65.5999 13.2 63.3 8.4 58.8C2 52.7 4.05312e-06 42.2 4.4 34.5C8.8 26.9 19.6 23.4 27.3 27.8C31.4 30.1 34.4 34.7 34.1 39.4C33.8 44.2 29.5 48.5 24.8 48.2C20 47.9 16.4 42 18.7 37.9" stroke="black" stroke-width="3.1" stroke-linecap="round" stroke-linejoin="round"/>
</svg>
