<svg width="750" height="42" viewBox="0 0 750 42" fill="none" xmlns="http://www.w3.org/2000/svg">
<path d="M738.8 10.2C740.1 12.3 739.4 15.3 737.5 16.9C735.6 18.5 732.8 18.7 730.6 17.6C726.8 15.8 725.3 10.7 727.1 7.00001C728.9 3.20001 733.5 1.19999 737.6 1.79999C741.7 2.49999 745.2 5.49999 746.9 9.29999C748.7 13 748.8 17.4 747.7 21.4C744.8 32.8 732.2 40.6 720.7 38.2C717.9 37.6 715.1 36.4 713.1 34.3C711.2 32.1 710.3 28.9 711.4 26.2C712.5 23.6 715.8 21.9 718.5 23.1C721.2 24.4 722 28.3 720.7 31.1C719.5 33.9 716.8 35.7 714 37C714 37 706.2 40.5 700.4 39.8H454.7" stroke="black" stroke-width="3.1" stroke-linecap="round" stroke-linejoin="round"/>
<path d="M11.2 10.2C9.9 12.3 10.6 15.3 12.5 16.9C14.4 18.5 17.2 18.7 19.4 17.6C23.2 15.8 24.7 10.7 22.9 7.00001C21.1 3.20001 16.5 1.19999 12.4 1.79999C8.3 2.49999 4.80001 5.49999 3.10001 9.29999C1.30001 13 1.2 17.4 2.3 21.4C5.20001 32.8 17.8 40.6 29.3 38.2C32.1 37.6 34.9 36.4 36.9 34.3C38.8 32.1 39.7 28.9 38.6 26.2C37.5 23.6 34.2 21.9 31.5 23.1C28.8 24.4 28 28.3 29.3 31.1C30.5 33.9 33.2 35.7 36 37C36 37 43.8 40.5 49.6 39.8H295.3" stroke="black" stroke-width="3.1" stroke-linecap="round" stroke-linejoin="round"/>
<path d="M296.1 16.9C291.9 19.6 292.8 27.7 297.6 29.1C302.1 30.4 306.1 28.7 309.7 23.9C312.6 19.8 311.1 12.9 306.9 10.1C288.4 -2.09999 272.1 27.5 291.3 38C299 42.3 308.8 38.8 315.8 33.4C322.7 28 327.9 20.7 334.7 15.1C341.5 9.60001 351 5.80001 359 9.20001C364.4 11.5 368.2 16.8 368.7 22.6C369.2 28.3 366.4 34.2 361.5 37.4C356.9 40.4 350.2 40.7 345.9 37.1C341.6 33.5 341 26 345.2 22.3C349.4 18.7 357.5 21.3 358 26.9" stroke="black" stroke-width="3.1" stroke-linecap="round" stroke-linejoin="round"/>
<path d="M455.5 16.9C459.7 19.6 458.8 27.7 454 29.1C449.4 30.4 445.4 28.7 441.9 23.9C438.9 19.8 440.5 12.9 444.6 10.1C463.1 -2.09999 479.4 27.5 460.3 38C452.6 42.3 442.7 38.8 435.8 33.4C428.9 28 423.7 20.7 416.9 15.1C410.1 9.60001 400.6 5.80001 392.5 9.20001C387.2 11.5 383.3 16.8 382.8 22.6C382.3 28.3 385.2 34.2 390 37.4C394.7 40.4 401.4 40.7 405.7 37.1C410 33.5 410.6 26 406.4 22.3C402.1 18.7 394.1 21.3 393.5 26.9" stroke="black" stroke-width="3.1" stroke-linecap="round" stroke-linejoin="round"/>
</svg>
