<svg width="192" height="241" viewBox="0 0 192 241" fill="none" xmlns="http://www.w3.org/2000/svg">
<path fill-rule="evenodd" clip-rule="evenodd" d="M30 0L32.4492 0.472656L35.6875 1.0625L38.8867 1.66016C41.9288 1.99223 44.0428 1.61502 47 1L49.375 2.4375C53.7138 5.02014 57.7323 4.24465 62.549 3.31511L62.5625 3.3125C66.7153 2.93497 68.3382 4.16909 72 6C75.3214 5.76692 78.233 5.23208 81.4141 4.26953C84.8521 3.91119 86.0333 4.9575 88.8125 6.9375C93.623 10.032 96.3431 10.7939 102 10L105 8C108.79 8 110.516 9.36596 113.125 11.875C116.135 14.6618 118.433 15.5093 122.438 16.3125C128.227 17.6289 130.599 20.3124 134.246 24.8359C137.135 28.4008 139.744 30.7522 144.418 31.2656C148.705 31.3416 152.839 31.1097 157 30L158.688 33.375L159.793 35.5742C160.621 37.2374 161.435 38.907 162.238 40.582C166.247 48.8594 169.512 53.315 178 57L180.074 57.9141C181.71 58.6241 183.354 59.3142 185 60C185.125 67.625 185.125 67.625 184 71C183.469 77.3762 185.14 82.8773 186.984 88.9482L187 89H189C192.07 93.094 192.07 93.094 191.863 95.7578C190.852 98.3849 189.373 100.526 187.761 102.822C183.32 109.17 180.661 114.042 181 122C180.98 123.375 180.959 124.75 180.938 126.125L181 129L179.188 129.688C176.325 131.405 175.452 133.003 174 136C173.824 138.994 173.824 138.994 174.125 142.062C174.29 147.664 174.29 147.664 171.625 150.75C169 152 169 152 167 152L166 155C158.251 159.401 150.375 161.675 141.547 162.676C139.013 162.856 139.013 162.856 137 164L139 167L144 186C143.889 189.792 143.758 193.584 143.625 197.375L143.531 200.59C143.044 213.84 143.044 213.84 141 220C141.402 226.281 138.618 233.242 134.867 238.348C132.651 240.309 131.55 240.557 128.625 240.562L125 240C124 237 124 237 125.109 234.285L126.75 231.062C134.325 215.175 135.521 198.14 132 181C130.003 175.649 127.698 172.259 123 169V171H121L120.375 174C117.909 182.321 112.174 187.253 104.883 191.574C100.705 193.64 96.711 195.137 92 195C89.25 193.188 89.25 193.188 87 191C83.0006 189.727 80.4155 190.107 76.5 191.25C74.1562 191.844 74.1562 191.844 72 192C69 189.75 69 189.75 67.5508 188.324C63.9356 185.237 59.558 184.847 54.9316 185.124C49.9299 185.579 44.9665 186.259 40 187C38.3668 184.361 36.9965 181.99 35.9375 179.062C31.4598 171.985 22.8427 169.319 15.1523 166.957L13 166C11.8212 162.464 12.3175 160.967 13.125 157.375C14.1604 151.448 14.0115 147.27 11 142C9.24298 139.749 7.41952 137.672 5.42578 135.629C4 134 4 134 4 132L1 131C0.1875 128.375 0.1875 128.375 0 125C1.2285 123.513 2.46346 122.029 3.76953 120.609C6.04359 117.635 6.32972 114.591 6 111C5.14143 107.885 4.10385 104.879 3.00781 101.84C1.77915 98.3777 1 95.6786 1 92C3 89.8125 3 89.8125 5 88C23.9454 96.395 23.9454 96.395 31.5 100.25C38.3427 103.736 45.3069 106.948 52.2797 110.163L52.875 110.438C61.3365 114.34 69.7585 118.295 78.0659 122.517C82.6471 124.844 87.2781 126.976 92 129L94 117C89.8568 114.974 85.7116 112.952 81.5625 110.938L79.6259 109.997C69.0773 104.885 58.4411 99.9933 47.75 95.1875C37.7604 90.6944 27.8916 86.0921 18.2891 80.8086C13.9232 78.4079 9.47531 76.1882 5 74L6 68C10.0034 66.8802 12.0648 67.0812 15.8086 68.8438L18.5488 70.1113L21.4375 71.5L24.4395 72.9043C30.7634 75.8786 37.016 78.9793 43.2422 82.1523C49.086 85.0743 55.0774 87.6901 61.0337 90.3723C66.7766 92.9659 72.4289 95.6799 78.0391 98.5508C84.2548 101.593 90.6413 104.273 97 107C98.9032 104.145 99.4619 102.581 100.125 99.3125L100.633 96.8633L101 95L98.4263 94.2024C94.8559 92.9494 91.5744 91.432 88.1797 89.7617L86.2155 88.8007C84.824 88.1199 83.4332 87.4375 82.0432 86.7537C78.3444 84.9348 74.6395 83.1286 70.9336 81.3242L68.6588 80.2165C61.4596 76.7206 54.2068 73.3471 46.9375 70C37.1939 65.5097 27.5545 60.8792 18 56L15.8418 55.0396L13.6406 54.0352L11.6104 53.1448C10 52 10 52 9.1709 50.0173C9 48 9 48 10.625 45.6875C13 44 13 44 15.1602 44.1719C18.8971 45.2616 22.3197 46.8718 25.8125 48.5625L28.0762 49.6426C33.7443 52.3597 39.3665 55.166 44.9778 57.9983C49.7812 60.415 54.6268 62.7276 59.5 65C65.0435 67.585 70.5397 70.2436 76 73C81.718 75.8812 87.4647 78.6937 93.25 81.4375L95.418 82.4746C98.6282 83.9873 101.54 85.1351 105 86L107 75C95.3313 68.6455 83.4937 62.8332 71.4043 57.321C65.5898 54.6666 59.8154 51.9735 54.125 49.0625C42.2696 43.002 30.0924 37.567 18 32C19 29 19 29 21 27.25C23.669 24.2474 23.6537 21.9474 24 18C24.423 15.0388 24.8506 13.2404 26.4375 10.6875C28.4693 7.19273 29.1314 3.94232 30 0ZM130.625 112.938C131.079 111.623 131.535 110.31 132 109C134.216 108.767 134.216 108.767 135.953 110.906L138.25 113.5C143.803 120.067 143.803 120.067 149 127H127C127.881 123.035 128.688 119.044 129.852 115.152L130.625 112.938Z" fill="url(#paint0_linear_1_6)"/>
<defs>
<linearGradient id="paint0_linear_1_6" x1="0" y1="0" x2="192" y2="241" gradientUnits="userSpaceOnUse">
<stop stop-color="#17A2B8"/>
<stop offset="1" stop-color="#00394F"/>
</linearGradient>
</defs>
</svg>
